<svg id="Layer_1" data-name="Layer 1" xmlns="http://www.w3.org/2000/svg" viewBox="0 0 512 512"><title>mute-sound</title><path d="M0,256C0,114.61,114.61,0,256,0S512,114.63,512,256,397.38,512,256,512,0,397.39,0,256Z" fill="#00c7ff"/><path d="M396.21,304.49a6.25,6.25,0,0,1-8.8,0L300.6,217.68a6.25,6.25,0,0,1,0-8.81l1.38-1.39a6.24,6.24,0,0,1,8.8,0l86.81,86.82a6.23,6.23,0,0,1,0,8.8Z" fill="#fff"/><path d="M397.58,208.88a6.24,6.24,0,0,1,0,8.8l-86.81,86.82a6.24,6.24,0,0,1-8.8,0l-1.38-1.38a6.25,6.25,0,0,1,0-8.81l86.8-86.81a6.25,6.25,0,0,1,8.8,0Z" fill="#fff"/><path d="M162.36,207.13c-.65,0-1.36.1-2,.1H142.86a30.35,30.35,0,0,0-30.26,30.25v37a30.35,30.35,0,0,0,30.26,30.27h17.51c.62,0,1.34.08,2,.1Z" fill="#fff"/><path d="M252,165.69l-36.35,24.59c-10.49,7.11-27.4,13.19-42.23,15.71V306c14.83,2.52,31.75,8.61,42.24,15.71L252,346.32c13.78,9.33,25.06,3.34,25.06-13.31V179C277.09,162.33,265.81,156.36,252,165.69Z" fill="#fff"/></svg>